PathFileType	4	(X/Y/Z)	C:\Users\Basilio\Documents\Thesis Gigler\squatting_fais\c3dfiles\047\SLS_pre_front4\markers_experimental.trc
DataRate	CameraRate	NumFrames	NumMarkers	Units	OrigDataRate	OrigDataStartFrame	OrigNumFrames
200.000000	200.000000	4	60	mm	200.000000	877	1404
Frame#	Time	FHD			LBHD			RBHD			C7			T10			CLAV			LSHO			LUUPA			LMUPA			LDUPA			LLEP			LMEP			LRAD			LUL			LRFIN			RSHO			RUPA1			RMUPA			RDUPA			RLEP			RMEP			RRAD			RUL			RUFIN			LASI			RASI			USACR			LSACR			RSACR			LTHI1			LTHI2			LTHI3			LTHI4			LLFC			LMFC			LTIB1			LTIB2			LTIB3			LTIB4			LLMAL			LMMAL			LMT1			LMT2			LMT5			RTHI			RTHI2			RTHI3			RTHI4			RLFC			RMFC			RTIB1			RTIB2			RTIB3			RTIB4			RLMAL			RMMAL			RHEE			RMT1			RMT2			RMT5			
		X1	Y1	Z1	X2	Y2	Z2	X3	Y3	Z3	X4	Y4	Z4	X5	Y5	Z5	X6	Y6	Z6	X7	Y7	Z7	X8	Y8	Z8	X9	Y9	Z9	X10	Y10	Z10	X11	Y11	Z11	X12	Y12	Z12	X13	Y13	Z13	X14	Y14	Z14	X15	Y15	Z15	X16	Y16	Z16	X17	Y17	Z17	X18	Y18	Z18	X19	Y19	Z19	X20	Y20	Z20	X21	Y21	Z21	X22	Y22	Z22	X23	Y23	Z23	X24	Y24	Z24	X25	Y25	Z25	X26	Y26	Z26	X27	Y27	Z27	X28	Y28	Z28	X29	Y29	Z29	X30	Y30	Z30	X31	Y31	Z31	X32	Y32	Z32	X33	Y33	Z33	X34	Y34	Z34	X35	Y35	Z35	X36	Y36	Z36	X37	Y37	Z37	X38	Y38	Z38	X39	Y39	Z39	X40	Y40	Z40	X41	Y41	Z41	X42	Y42	Z42	X43	Y43	Z43	X44	Y44	Z44	X45	Y45	Z45	X46	Y46	Z46	X47	Y47	Z47	X48	Y48	Z48	X49	Y49	Z49	X50	Y50	Z50	X51	Y51	Z51	X52	Y52	Z52	X53	Y53	Z53	X54	Y54	Z54	X55	Y55	Z55	X56	Y56	Z56	X57	Y57	Z57	X58	Y58	Z58	X59	Y59	Z59	X60	Y60	Z60	

878	4.385	-57.27717208862306	1382.79345703125	-1083.04833984375	-236.6848449707032	1367.044189453125	-1112.802612304688	-217.1260986328126	1371.60107421875	-965.6728515625002	-295.0556640625001	1212.057739257813	-1037.03759765625	-417.7329711914064	937.7849731445315	-999.858581542969	-159.4701232910157	1122.147705078125	-1060.140991210938	-228.5994415283204	1177.588012695313	-1199.142456054688	-159.3506317138672	1100.114990234375	-1334.893310546875	-124.9902496337891	1137.572998046875	-1330.746704101563	-96.43273925781253	1100.046142578125	-1364.215698242188	-35.01530838012696	1112.991943359375	-1386.845336914063	-10.6851921081543	1049.993286132813	-1344.569702148438	236.7401428222657	1096.252197265625	-1401.412841796875	214.0040893554688	1111.56396484375	-1475.30810546875	308.5461425781251	1121.1455078125	-1430.11279296875	-186.5871887207032	1194.206298828125	-919.1872558593752	-62.31901168823244	1133.038330078125	-807.5593261718752	-33.9116554260254	1164.647583007813	-832.9553833007815	6.969417095184328	1126.945678710938	-809.0269775390627	75.17352294921876	1137.44140625	-819.5295410156252	77.95495605468751	1067.465454101563	-859.8628540039065	334.2691040039063	1118.055419921875	-890.6699829101565	332.6358642578126	1138.74609375	-820.4963989257815	415.246063232422	1136.514770507813	-885.8250122070315	-318.2075195312501	692.7170410156251	-1081.179931640625	-306.5096435546876	722.8039550781251	-855.6240234375002	-484.0087280273439	798.857849121094	-973.1770019531252	-501.035858154297	768.2917480468752	-997.7963867187502	-495.103973388672	769.9834594726565	-942.195983886719	-330.3826599121094	572.9495849609376	-1156.161254882813	-246.5965423583985	562.7683105468751	-1161.47412109375	-221.1615447998047	602.9331665039064	-1148.515502929688	-216.2940368652344	511.3660278320314	-1165.436157226563	-93.12011718750001	405.0946044921876	-1144.84716796875	-53.17936325073244	424.0784912109376	-1016.846984863281	-141.2869720458985	267.1298217773438	-1020.168701171875	-171.4891052246094	218.9010620117188	-1086.096313476563	-162.2280731201172	216.5909729003907	-1040.327758789063	-224.2082519531251	174.1179962158203	-1004.858520507813	-321.2844238281251	114.7278900146485	-1051.457397460938	-297.6868286132813	136.4973449707032	-962.7495117187502	-190.4943237304688	60.93896865844728	-976.3817138671877	-188.1905670166016	58.86458969116212	-1021.328308105469	-237.1548614501954	45.14954376220704	-1066.2509765625	-296.9084777832032	574.1197509765626	-756.8801879882814	-230.7947082519532	572.1737670898439	-766.7573852539064	-213.8338012695313	597.6215209960939	-776.4222412109377	-182.76513671875	503.9454956054689	-771.484069824219	-60.8126678466797	426.4808044433595	-801.122009277344	-51.47212982177736	433.8035583496095	-925.1526489257815	56.35010147094728	368.1727600097657	-829.5659179687502	81.59625244140626	270.2096252441407	-786.9030761718752	108.5189666748047	300.9875183105469	-810.0272216796877	146.152587890625	275.0540771484376	-845.7895507812502	218.8737945556641	131.0420379638672	-816.2185058593752	217.1896209716797	152.7481079101563	-905.9031372070315	191.4134216308594	65.61701965332033	-861.2673950195315	364.2839050292969	175.4453125	-906.0275878906252	368.1936645507813	188.3134765625	-864.198425292969	352.9583435058594	144.3614349365235	-802.7564086914065	
879	4.39	-56.93309783935548	1382.837646484375	-1082.990966796875	-236.6089477539063	1367.0654296875	-1112.60791015625	-216.9240417480469	1371.548217773438	-965.631042480469	-294.8760375976563	1212.050659179688	-1036.954833984375	-417.6668090820314	937.8101806640627	-999.9197998046877	-159.2573394775391	1122.138305664063	-1060.037109375	-227.8566589355469	1177.602783203125	-1199.294677734375	-159.2312164306641	1100.157958984375	-1334.810302734375	-124.8909988403321	1137.579223632813	-1330.695922851563	-96.3907165527344	1100.00244140625	-1364.123901367188	-34.89170074462891	1112.940795898438	-1386.86279296875	-10.72505474090576	1050.013549804688	-1344.622436523438	237.003158569336	1096.059936523438	-1401.471313476563	214.1771087646485	1111.413208007813	-1475.334838867188	308.7240295410157	1121.029174804688	-1430.293823242188	-186.4784698486328	1194.123657226563	-919.137634277344	-62.21297836303712	1132.916259765625	-807.4063110351565	-33.76913452148438	1164.467407226563	-832.9362792968752	7.032718181610109	1126.855346679688	-808.9650878906252	75.2332000732422	1137.153686523438	-819.4744873046877	78.58328247070314	1067.3369140625	-861.2852172851565	334.4241638183594	1117.836181640625	-890.6912231445315	332.7235107421876	1138.522705078125	-820.5333251953127	415.5144348144532	1136.45166015625	-886.1154785156252	-318.1661071777344	692.6613769531251	-1081.160888671875	-306.5004272460938	722.8223876953126	-855.603698730469	-483.9553527832032	798.925476074219	-973.2648925781252	-501.0092773437501	768.3000488281252	-997.8276367187502	-495.0999755859376	769.9819946289065	-942.2325439453127	-330.4089965820313	572.9951782226564	-1156.158935546875	-246.5409698486329	562.8397827148439	-1161.462768554688	-221.0784606933594	602.9672241210939	-1148.504272460938	-216.3230438232422	511.4476013183595	-1165.4287109375	-93.21658325195314	405.0939941406251	-1144.838256835938	-53.17965316772462	424.0791931152345	-1016.846984863281	-141.1510925292969	267.1828308105469	-1020.331176757813	-171.3756561279297	219.5333709716797	-1086.035400390625	-162.1911010742188	216.5893554687501	-1040.326171875	-224.2091827392579	174.1204986572266	-1004.845153808594	-321.2791442871094	114.7145614624024	-1051.456176757813	-297.6932373046876	136.5095977783203	-962.7905883789065	-190.6177062988282	60.90212631225587	-976.3115234375002	-188.2008666992188	58.91030120849611	-1021.336303710938	-237.1640014648438	45.14765930175782	-1066.226318359375	-296.9537963867188	574.1052856445314	-756.9342041015626	-230.4102325439454	572.5530395507814	-765.3475952148439	-213.8984069824219	597.5520019531251	-776.4326782226565	-182.8313751220703	503.9164428710939	-771.5607910156252	-60.8439064025879	426.470672607422	-801.2430419921877	-51.6158905029297	433.7950439453126	-925.2410278320315	56.32423400878908	368.1376953125001	-829.8814086914065	81.59085083007814	270.0921630859376	-787.2190551757815	108.4642486572266	300.9667663574219	-810.2757568359377	146.096923828125	275.0198669433594	-845.9893188476565	218.8103942871094	130.9736938476563	-816.6224365234377	217.1992340087891	152.6949157714844	-906.241149902344	191.3372039794922	65.63640594482423	-861.4763793945315	364.1282653808594	175.4589385986328	-906.4586181640627	368.0691528320313	188.1552276611328	-864.5391235351565	353.0492858886719	144.4329376220703	-803.2484130859377	
880	4.395	-56.61843872070314	1382.945434570313	-1082.906616210938	-236.4416503906251	1367.045776367188	-1112.464111328125	-216.5474853515626	1371.548828125	-965.7236938476565	-294.7121887207032	1212.167724609375	-1036.885009765625	-417.6260375976564	937.954040527344	-999.855651855469	-159.1333160400391	1122.1298828125	-1060.063720703125	-227.6929626464844	1177.64306640625	-1199.20556640625	-159.0719909667969	1100.162353515625	-1334.821044921875	-124.8778533935547	1137.612182617188	-1330.583129882813	-96.18874359130862	1100.113403320313	-1364.034545898438	-34.87010574340821	1112.950805664063	-1386.761596679688	-10.65998077392578	1050.017333984375	-1344.48291015625	237.0335388183594	1095.864868164063	-1401.529418945313	214.2174682617188	1111.2568359375	-1475.360717773438	308.8875427246094	1120.85498046875	-1430.422119140625	-186.367919921875	1194.104248046875	-919.072937011719	-62.08022689819337	1132.772583007813	-807.4028320312502	-33.63230895996094	1164.311279296875	-832.9075317382815	7.07079601287842	1126.734985351563	-808.7642822265627	75.29885864257814	1137.0341796875	-819.3985595703127	78.24918365478517	1067.187866210938	-859.9813232421877	334.6914672851563	1117.898803710938	-890.821960449219	332.7942810058594	1138.309204101563	-820.5339355468752	415.5204162597657	1136.326904296875	-886.0208129882815	-318.1023254394532	692.7235107421876	-1081.14111328125	-306.5689697265626	722.8719482421876	-855.590515136719	-483.913543701172	799.0139770507815	-973.2852172851565	-500.9922180175782	768.363708496094	-997.888366699219	-495.0518493652345	770.0495605468752	-942.277282714844	-330.3413085937501	573.0823364257814	-1156.139526367188	-246.4483795166016	562.8786010742189	-1161.506713867188	-221.0841522216797	603.0345458984376	-1148.532958984375	-216.2398681640626	511.4156799316407	-1165.494995117188	-93.07138824462892	405.0727844238282	-1144.903442382813	-53.17776489257814	424.156463623047	-1016.977294921875	-141.1156005859375	267.1552124023438	-1020.397766113281	-171.3553619384766	219.4692687988282	-1086.041870117188	-162.1913757324219	216.6202087402344	-1040.27197265625	-224.2085876464844	174.1134185791016	-1004.864501953125	-321.2468872070313	114.7439270019532	-1051.459838867188	-297.6611022949219	136.490478515625	-962.7650146484377	-190.478012084961	60.8785743713379	-976.3138427734377	-188.2053985595703	58.88121414184572	-1021.383422851563	-237.1863861083985	45.15707015991212	-1066.164916992188	-296.9431762695313	574.1142578125001	-756.9511108398439	-230.8319091796876	572.1333007812501	-766.8528442382814	-213.8944244384766	597.4821777343751	-776.461120605469	-183.0313568115235	503.7442321777345	-771.7258300781252	-60.97860717773439	426.3739013671876	-801.2894287109377	-51.73281860351564	433.7241210937501	-925.3384399414065	56.22793579101564	368.0456542968751	-830.107604980469	81.60356903076173	269.8692016601563	-787.2776489257815	108.3740692138672	300.9221191406251	-810.4329223632815	146.0451049804688	274.9638061523438	-846.236999511719	218.9511108398438	130.9541778564453	-817.0192871093752	216.9285125732422	152.5786437988282	-906.4899902343752	191.2959136962891	65.55015563964845	-861.880554199219	363.9958190917969	175.4674377441407	-906.975036621094	367.9376525878907	188.1400909423828	-864.750915527344	352.9803161621094	144.4302520751953	-803.7174072265627	
881	4.4	-56.56273269653322	1383.087280273438	-1082.7021484375	-236.2844543457032	1367.071899414063	-1112.274291992188	-216.4420471191407	1371.509887695313	-965.5877685546877	-294.5320739746094	1212.383422851563	-1036.813842773438	-417.5349731445314	937.9870605468752	-999.849548339844	-158.84716796875	1122.116577148438	-1060.017211914063	-227.3177185058594	1177.682006835938	-1199.150390625	-158.8981170654297	1100.158203125	-1334.775634765625	-124.5598220825196	1137.56982421875	-1330.599731445313	-96.03901672363284	1100.047119140625	-1364.026611328125	-34.62493896484376	1112.841064453125	-1386.8291015625	-10.41303443908692	1049.916137695313	-1344.433715820313	237.2857360839844	1095.761962890625	-1401.54443359375	214.7505950927735	1110.91650390625	-1475.460083007813	308.9832153320313	1120.80322265625	-1430.610473632813	-186.1704864501953	1194.09130859375	-918.9959716796877	-62.02838516235353	1132.61767578125	-807.1865844726565	-33.56752395629884	1164.193115234375	-832.8128662109377	7.122292995452883	1126.682983398438	-808.655212402344	75.39625549316408	1136.8798828125	-819.2191162109377	78.41603088378908	1067.087890625	-860.0273437500002	334.8321228027344	1117.755615234375	-890.815856933594	332.7590026855469	1137.989868164063	-820.4358520507815	415.3011474609376	1136.2822265625	-885.5482177734377	-318.0649719238282	692.6847534179689	-1081.089599609375	-306.6152648925782	722.9392089843751	-855.565124511719	-483.9097290039064	799.1051025390627	-973.3090820312502	-500.9237365722657	768.393493652344	-997.9067993164065	-495.0106811523439	770.1699829101565	-942.3524169921877	-330.2920532226563	573.1718139648439	-1156.201904296875	-246.4417266845704	562.8889160156251	-1161.528076171875	-221.0502166748047	603.0301513671876	-1148.55908203125	-216.2175598144532	511.4350891113282	-1165.5302734375	-93.09061431884767	405.0689086914064	-1145.012817382813	-53.08161926269533	424.1388549804689	-1017.042541503906	-141.1033020019532	267.2224731445313	-1020.526245117188	-171.3236389160157	218.9255676269532	-1086.091552734375	-162.1576232910157	216.5523681640626	-1040.341186523438	-224.2137603759766	174.1723022460938	-1004.835754394531	-321.1647338867188	114.755241394043	-1051.475952148438	-297.6112670898438	136.5091552734375	-962.7466430664065	-190.5816345214844	60.83933639526369	-976.2788085937502	-188.182373046875	58.92556762695314	-1021.353393554688	-237.1427917480469	45.24596023559571	-1066.176879882813	-296.9604797363282	574.1197509765626	-757.0642089843751	-230.839340209961	572.1168212890626	-766.8247070312501	-213.9245147705079	597.4582519531251	-776.4566650390627	-183.1096649169922	503.7633361816407	-771.8167724609377	-60.95141220092775	426.6322326660157	-801.463073730469	-51.9582862854004	433.6302795410157	-925.5085449218752	56.10982131958009	367.8443298339844	-830.3218994140627	81.51686096191408	269.6705627441407	-787.5445556640627	108.2232284545899	300.7687683105469	-810.5784912109377	145.986328125	274.8943786621094	-846.5070800781252	219.0081787109376	130.8604431152344	-817.224792480469	216.7375640869141	152.4314727783203	-906.573181152344	191.2470245361328	65.52079010009767	-862.172058105469	363.8764038085938	175.43701171875	-907.3740844726565	367.9450988769532	188.2376251220703	-865.2836914062502	353.0720214843751	144.442626953125	-804.0321044921877	
